<svg width="427" height="411" viewBox="0 0 427 411" fill="none" xmlns="http://www.w3.org/2000/svg">
<path d="M55.6131 348.558C-28.181 259.938 2.09013 114.724 22.7096 98.0528C43.3291 81.3816 141.601 145.434 154.324 134.905C167.046 124.375 117.033 22.5942 129.317 12.065C141.601 1.53575 268.828 -19.6102 347.357 43.2135C425.887 106.037 459.668 241.512 385.525 335.835C311.383 430.159 139.407 437.178 55.6131 348.558Z" fill="#4AD167"/>
<path d="M58.3101 271.055C56.2196 272.71 54.1291 274.366 52.0385 276.021C57.0752 283.756 62.7258 291.068 68.6954 298.169C118.069 362.346 224.375 408.409 305.863 354.694C311.022 351.628 315.744 348.535 320.538 345.06C394.749 295.396 398.453 190.983 366.218 123.811C362.485 115.254 358.407 106.959 353.618 99.0005C351.199 100.123 348.78 101.246 346.362 102.369C348.743 110.546 350.745 119.424 352.366 128.093C366.588 200.067 352.812 275.334 297.044 312.687C293.244 315.441 289.475 317.947 285.315 320.487C223.242 362.41 140.361 339.175 78.262 288.346C71.3586 282.873 64.4206 276.948 58.3101 271.055Z" fill="#95F079"/>
</svg>
