<svg width="146" height="146" viewBox="0 0 146 146" fill="none" xmlns="http://www.w3.org/2000/svg">
<g clip-path="url(#clip0_370_467)">
<rect width="146" height="146" rx="25" fill="#3A7224"/>
<path d="M34.8699 69.656C33.4619 69.336 32.1499 68.792 30.9339 68.024C29.7179 67.256 28.6939 66.2 27.8619 64.856L31.1259 59.96C34.1979 55.416 36.9499 52.344 39.3819 50.744C41.8779 49.144 44.5659 48.344 47.4459 48.344C50.8379 48.344 53.7179 49.688 56.0859 52.376C58.5179 55 59.7339 58.584 59.7339 63.128V77.624C59.7339 84.6 61.7819 88.088 65.8779 88.088C68.5019 88.088 70.9339 87.032 73.1739 84.92C75.4139 82.808 77.2059 80.056 78.5499 76.664C79.9579 73.208 80.6619 69.528 80.6619 65.624C80.6619 65.112 80.6619 64.6 80.6619 64.088C77.6539 62.936 75.3179 61.4 73.6539 59.48C73.8459 57.432 74.3899 55.576 75.2859 53.912C76.1819 52.184 77.2699 50.84 78.5499 49.88C79.8939 48.856 81.1739 48.344 82.3899 48.344C83.7979 48.344 85.0459 49.08 86.1339 50.552C87.2219 52.024 88.0539 54.008 88.6299 56.504C90.1659 56.376 91.7339 56.184 93.3339 55.928C94.9339 55.672 96.2779 55.352 97.3659 54.968C98.0699 56.056 98.6139 57.368 98.9979 58.904C99.4459 60.376 99.6059 61.784 99.4779 63.128C98.2619 63.448 96.7899 63.768 95.0619 64.088C93.3979 64.408 91.5419 64.664 89.4939 64.856C89.4939 70.808 88.4059 76.184 86.2299 80.984C84.1179 85.72 81.2059 89.464 77.4939 92.216C73.7819 94.968 69.5899 96.344 64.9179 96.344C60.6299 96.344 57.2379 94.84 54.7419 91.832C52.2459 88.76 50.9979 84.632 50.9979 79.448V64.376C50.9979 61.56 50.5819 59.576 49.7499 58.424C48.9179 57.208 47.8939 56.6 46.6779 56.6C45.7179 56.6 44.6299 57.048 43.4139 57.944C42.2619 58.776 40.6939 60.728 38.7099 63.8L34.8699 69.656ZM104.081 96.344C102.289 96.344 100.753 95.704 99.4726 94.424C98.1926 93.08 97.5526 91.512 97.5526 89.72C97.5526 87.928 98.1926 86.392 99.4726 85.112C100.753 83.832 102.289 83.192 104.081 83.192C105.873 83.192 107.409 83.832 108.689 85.112C110.033 86.392 110.705 87.928 110.705 89.72C110.705 91.512 110.033 93.08 108.689 94.424C107.409 95.704 105.873 96.344 104.081 96.344Z" fill="white"/>
</g>
<defs>
<clipPath id="clip0_370_467">
<rect width="146" height="146" fill="white"/>
</clipPath>
</defs>
</svg>
