<svg width="66" height="66" viewBox="0 0 66 66" fill="none" xmlns="http://www.w3.org/2000/svg">
<rect width="66" height="66" rx="33" fill="#0F172A"/>
<path d="M25.5 33V42.25C25.5 44.0449 24.0449 45.5 22.25 45.5C20.4551 45.5 19 44.0449 19 42.25V27.9544C19 26.0916 19.8652 24.3344 21.3417 23.1987L23.8825 21.2443C24.9313 20.4374 26.2167 20 27.54 20H34.5C41 20 46.5 26 46.5 33.5C46.5 41 42 45.5 34.5 45.5H31.9448C30.1499 45.5 29.5 44.0449 29.5 42.25C29.5 40.4551 30.1499 39 31.9448 39H34.5C42 39 42 27 34.5 27H31.4978C28.1841 27 25.5 29.6863 25.5 33Z" fill="#F8FAFC"/>
</svg>
